<?xml version="1.0" standalone="no"?>
<!DOCTYPE svg PUBLIC "-//W3C//DTD SVG 20010904//EN"
 "http://www.w3.org/TR/2001/REC-SVG-20010904/DTD/svg10.dtd">
<svg version="1.0" xmlns="http://www.w3.org/2000/svg"
 width="988.000000pt" height="1280.000000pt" viewBox="0 0 988.000000 1280.000000"
 preserveAspectRatio="xMidYMid meet">
<metadata>
Created by potrace 1.15, written by Peter Selinger 2001-2017
</metadata>
<g transform="translate(0.000000,1280.000000) scale(0.100000,-0.100000)"
fill="#000000" stroke="none">
<path d="M4591 12784 c-43 -18 -160 -137 -196 -198 -27 -46 -39 -54 -50 -37
-9 16 -172 101 -192 101 -11 0 -42 -11 -69 -24 -28 -13 -97 -39 -155 -56 -124
-39 -150 -51 -209 -100 -123 -102 -133 -104 -317 -64 -68 15 -134 23 -156 21
-21 -3 -91 -30 -155 -60 -73 -35 -138 -58 -171 -62 -50 -7 -53 -9 -35 -21 45
-31 46 -35 27 -56 -24 -28 -97 -58 -139 -58 -50 0 -42 18 21 46 39 18 55 31
55 45 0 10 -2 19 -4 19 -3 0 -32 -16 -65 -36 -44 -26 -83 -40 -151 -52 -84
-15 -94 -19 -125 -54 -50 -54 -69 -131 -62 -239 4 -47 5 -88 2 -91 -3 -2 -42
2 -88 10 -102 18 -142 12 -200 -33 -53 -41 -88 -106 -113 -210 -12 -51 -23
-77 -35 -80 -9 -3 -54 8 -100 25 -45 16 -91 30 -101 30 -24 0 -93 -63 -106
-98 -14 -34 -32 -157 -32 -212 0 -22 7 -57 15 -77 14 -33 14 -38 0 -45 -8 -5
-15 -17 -15 -27 0 -22 -21 -40 -88 -76 -29 -16 -57 -34 -63 -42 -18 -21 17
-28 69 -14 25 6 47 10 49 7 3 -3 -4 -18 -16 -35 -37 -52 -43 -81 -26 -136 12
-41 12 -53 1 -70 -12 -18 -22 -19 -170 -16 l-156 3 -67 -37 c-38 -20 -91 -54
-120 -76 -29 -21 -58 -39 -66 -39 -8 0 -76 23 -151 51 -76 28 -140 49 -142 46
-3 -3 7 -46 21 -97 14 -51 25 -94 23 -96 -2 -1 -24 2 -48 8 -25 6 -97 11 -160
12 -108 1 -118 -1 -169 -27 -80 -43 -144 -107 -177 -180 -26 -57 -28 -75 -35
-237 l-8 -175 -30 -27 c-26 -23 -40 -28 -86 -28 l-55 0 0 -37 c0 -23 11 -53
29 -82 18 -30 31 -66 34 -101 4 -32 21 -84 41 -125 33 -67 35 -76 40 -205 3
-91 12 -161 26 -215 14 -52 19 -94 15 -121 -11 -80 10 -135 115 -292 117 -177
166 -234 234 -272 65 -38 85 -39 26 -1 -53 33 -101 85 -117 127 -7 16 -24 60
-38 97 -15 38 -25 70 -23 72 2 2 35 -20 74 -50 68 -51 81 -68 118 -158 8 -20
21 -39 28 -41 7 -3 48 -15 91 -27 l77 -22 0 -38 c0 -22 -5 -39 -11 -39 -8 0
-8 -4 -1 -12 12 -16 -12 -1177 -27 -1313 -14 -115 -25 -176 -57 -297 -31 -118
-29 -154 5 -83 13 28 36 86 51 131 75 222 99 410 131 1044 7 129 16 242 20
250 11 19 10 -16 -1 -470 -26 -1067 -168 -1557 -572 -1987 -43 -45 -78 -85
-78 -88 0 -28 235 196 310 295 185 246 303 523 391 920 16 74 31 140 33 145 1
6 17 -69 36 -165 18 -96 45 -233 61 -305 16 -71 29 -134 29 -140 0 -5 -28 -28
-62 -50 -402 -258 -702 -697 -799 -1169 -31 -149 -38 -418 -14 -556 20 -124
60 -251 111 -352 39 -79 123 -203 131 -194 3 3 -17 53 -45 113 -114 248 -136
344 -136 598 0 182 1 195 31 306 60 218 158 433 286 625 107 161 349 403 479
478 l33 20 -40 -46 c-22 -26 -79 -91 -126 -145 -289 -330 -481 -686 -546
-1010 -24 -120 -23 -415 1 -526 48 -218 177 -497 349 -754 62 -92 169 -249
238 -348 134 -191 281 -420 370 -573 48 -84 69 -108 69 -83 0 6 -11 46 -25 89
-33 104 -110 254 -227 438 -51 82 -102 163 -112 179 -24 40 124 -114 282 -294
180 -204 280 -334 321 -421 31 -66 36 -84 35 -150 -1 -137 -52 -213 -249 -370
-63 -51 -113 -96 -109 -101 12 -20 192 102 295 199 156 147 189 308 99 494
-11 23 -18 43 -17 45 9 8 267 -268 267 -286 0 -29 -58 -100 -243 -299 -201
-215 -292 -326 -399 -487 -258 -386 -376 -804 -339 -1196 11 -124 42 -302 60
-351 8 -22 8 -22 26 8 199 328 422 512 802 663 143 56 230 83 493 151 453 118
559 153 710 231 203 105 293 235 374 541 67 252 71 292 71 683 0 328 -2 373
-23 505 -55 342 -122 618 -232 953 -37 114 -65 207 -62 205 4 -2 47 -34 95
-73 295 -235 538 -383 738 -449 177 -60 315 -80 534 -80 222 0 315 16 517 88
332 118 871 356 909 402 8 9 -5 14 -54 19 -93 10 -576 0 -614 -13 -18 -6 -33
-8 -33 -5 0 3 18 32 39 64 50 75 69 152 52 210 -27 90 -138 169 -236 169 -107
0 -214 -86 -297 -237 l-41 -75 -25 51 c-14 28 -67 104 -119 168 -81 101 -204
283 -216 317 -2 6 -16 -4 -32 -22 -15 -19 -73 -72 -127 -119 -55 -47 -139
-123 -187 -169 -49 -46 -94 -84 -100 -84 -6 0 -11 13 -11 28 0 36 -34 141 -66
205 -33 65 -91 126 -139 148 -81 37 -192 16 -265 -49 -79 -70 -82 -190 -10
-334 16 -34 30 -63 30 -64 0 -2 -29 10 -65 26 -87 39 -220 81 -411 129 l-159
41 -43 47 c-70 78 -201 279 -258 398 -53 111 -139 344 -129 353 2 3 17 -22 31
-54 155 -346 245 -504 333 -586 165 -155 345 -170 463 -40 46 51 61 99 56 178
-5 77 -28 113 -85 133 -79 28 -154 -17 -156 -95 -1 -39 28 -76 57 -72 18 3 21
9 18 46 -6 77 38 96 84 37 21 -28 25 -41 20 -70 -14 -72 -96 -133 -160 -119
-97 21 -198 112 -275 247 -24 43 -83 168 -132 280 -114 257 -190 383 -283 465
l-36 32 -10 147 c-10 140 -8 202 16 591 3 50 9 92 14 92 15 0 293 -307 336
-371 73 -110 91 -187 58 -252 -21 -42 -62 -85 -97 -103 -25 -14 -31 -13 -59 3
-43 25 -69 63 -75 111 -5 36 -2 45 25 72 17 16 37 30 45 30 23 0 41 -29 41
-68 1 -20 5 -43 9 -49 25 -38 107 21 107 77 0 48 -26 98 -62 120 -46 29 -149
25 -196 -9 -115 -82 -87 -302 48 -371 26 -14 59 -20 100 -20 l61 0 -8 -37 c-4
-21 -8 -78 -8 -128 0 -78 4 -97 28 -147 46 -93 141 -158 229 -158 106 1 188
83 188 187 0 30 -7 70 -16 91 -10 24 -13 49 -9 72 l7 35 50 -55 50 -55 -6
-111 c-6 -100 -5 -112 10 -118 10 -4 24 0 32 8 13 13 13 19 -1 48 -18 39 -12
128 9 128 16 0 95 -60 105 -80 4 -8 12 -46 17 -83 12 -76 34 -119 57 -111 22
9 18 39 -7 56 -16 11 -22 27 -26 73 -4 53 -3 58 13 51 10 -3 38 -11 64 -18 71
-17 119 -73 148 -173 7 -24 14 -30 38 -32 17 0 35 -2 42 -2 23 -2 72 -52 93
-96 26 -54 64 -70 89 -38 15 19 17 19 106 -15 59 -22 102 -45 125 -68 41 -39
52 -41 77 -15 16 17 25 18 63 11 25 -5 62 -11 82 -15 24 -4 39 -12 43 -24 9
-29 35 -34 60 -11 16 15 35 20 81 20 79 0 102 -8 106 -34 5 -34 55 -33 127 3
71 37 116 40 140 10 l16 -21 87 46 c47 24 103 48 125 51 74 12 81 15 100 47
11 18 41 56 66 84 l46 51 63 -13 c35 -8 75 -14 91 -14 25 0 27 -3 21 -27 -15
-70 -30 -100 -62 -130 -36 -33 -39 -68 -5 -61 23 4 81 103 95 165 l12 50 63
14 c51 12 63 12 67 2 9 -23 -11 -104 -34 -135 -24 -33 -20 -58 9 -58 14 0 23
9 27 28 3 15 10 42 16 61 6 19 13 57 17 85 6 51 6 51 70 85 l64 34 -6 -32 c-4
-17 -16 -44 -28 -61 -19 -25 -20 -32 -9 -45 8 -9 22 -14 31 -12 13 4 19 -3 23
-24 3 -16 9 -43 12 -60 15 -76 119 -138 210 -125 148 20 251 146 262 322 2 46
6 84 7 84 1 0 20 -7 41 -16 118 -49 276 54 291 190 8 68 -4 113 -43 156 -86
96 -231 73 -266 -42 -13 -45 -2 -78 35 -103 31 -20 55 -10 63 24 12 55 16 61
40 67 31 8 60 -17 69 -56 13 -58 -63 -150 -123 -150 -51 0 -112 95 -114 177
-2 79 114 209 282 318 58 37 140 90 183 118 43 27 79 48 81 46 11 -11 -82
-386 -149 -602 -67 -215 -73 -226 -147 -280 -81 -57 -184 -167 -299 -317 -218
-286 -309 -376 -425 -419 -30 -12 -77 -21 -104 -21 -41 0 -55 5 -84 31 -35 30
-56 79 -56 127 0 30 54 82 85 82 36 0 49 -58 19 -91 -32 -36 20 -54 64 -23 17
11 22 25 22 57 0 49 -19 81 -60 102 -127 66 -251 -119 -181 -270 21 -45 82
-109 124 -131 65 -34 197 -26 297 17 72 32 171 114 262 217 139 158 144 163
102 102 -84 -123 -217 -272 -327 -366 l-58 -49 18 -195 c25 -271 23 -514 -6
-710 -74 -511 -232 -1178 -332 -1397 -15 -35 -24 -63 -20 -63 10 0 92 149 131
238 101 235 204 629 280 1077 21 121 40 213 43 205 3 -8 21 -67 41 -130 70
-226 178 -412 319 -547 128 -123 275 -211 621 -375 635 -300 993 -515 1347
-810 59 -48 109 -88 110 -88 2 0 4 93 5 208 0 174 4 223 22 309 58 270 155
445 472 853 144 186 266 352 307 416 10 16 10 14 3 -11 -37 -134 -89 -252
-294 -663 -195 -392 -228 -475 -252 -636 -17 -113 -7 -215 28 -298 39 -92 43
-80 43 130 0 191 1 200 29 287 35 106 109 253 230 460 232 393 343 655 401
939 20 97 41 273 56 466 3 42 18 -77 18 -151 3 -378 -89 -750 -291 -1182 -72
-153 -84 -204 -31 -126 177 257 319 604 378 924 51 279 53 559 5 809 -22 112
-152 512 -210 647 -77 178 -201 363 -350 522 l-82 87 71 66 c79 73 175 188
235 281 22 35 41 61 44 59 2 -2 -12 -55 -31 -118 -89 -287 -77 -379 76 -608
51 -76 222 -258 233 -247 3 3 -21 38 -55 78 -132 157 -211 304 -231 433 -17
108 -8 151 82 396 65 176 92 284 113 455 22 174 34 208 34 100 2 -149 -11
-222 -99 -560 -43 -167 -62 -294 -42 -281 12 7 117 327 161 491 57 214 64 264
58 439 -8 244 -44 366 -183 617 -110 198 -180 286 -456 566 -136 138 -248 256
-248 261 0 28 14 42 42 42 43 0 58 -11 138 -102 41 -46 142 -157 226 -248 243
-262 342 -392 426 -560 51 -102 63 -100 24 2 -70 187 -170 333 -436 638 -74
85 -152 176 -173 202 l-39 47 39 -6 c21 -3 50 -11 66 -18 15 -8 27 -9 27 -4 0
6 15 7 36 3 l36 -7 -25 40 c-14 21 -41 71 -60 110 l-36 71 107 7 c243 17 367
86 456 255 l38 72 -5 147 c-4 103 -11 168 -26 221 -30 107 -28 142 10 185 22
25 39 35 60 35 98 0 103 70 12 160 -23 24 -42 56 -54 95 -12 40 -37 83 -74
130 -73 90 -73 91 -85 172 -12 88 -51 206 -102 308 -25 49 -43 104 -49 143 -5
35 -18 80 -28 100 -26 50 -121 152 -270 290 -127 117 -187 154 -267 167 -36 5
-35 4 18 -19 87 -37 111 -58 173 -154 32 -48 67 -97 78 -109 35 -39 11 -37
-83 8 -95 45 -138 82 -180 157 l-24 42 -60 0 c-34 0 -92 7 -131 15 -94 20
-134 19 -190 -5 -48 -20 -81 -25 -109 -14 -9 3 -13 10 -10 16 4 5 -6 8 -22 6
-17 -2 -28 -8 -27 -15 4 -19 -22 -16 -40 5 -29 32 -20 40 51 47 37 3 96 13
132 22 36 8 90 21 120 28 42 9 51 14 38 21 -9 5 -35 35 -58 66 -22 32 -50 63
-62 69 -21 11 -21 11 1 -20 31 -44 22 -56 -18 -26 -19 13 -51 27 -70 31 -20 3
-48 10 -64 16 -32 12 -167 153 -167 174 0 8 -10 14 -24 14 -44 0 -69 16 -171
110 -385 353 -856 591 -1327 669 -313 53 -640 47 -951 -15 -43 -9 -81 -14 -83
-11 -6 6 103 218 151 292 19 30 54 92 77 138 42 80 43 85 42 172 -2 107 -16
152 -78 238 -24 34 -55 88 -69 119 -44 98 -84 148 -141 174 -28 12 -62 34 -75
48 -13 15 -34 26 -50 26 -14 0 -93 -19 -175 -41 l-149 -42 -59 66 c-57 64
-101 95 -59 42 29 -37 35 -78 17 -113 -23 -45 -114 -121 -181 -153 -74 -36
-102 -37 -114 -5 -5 13 -17 26 -25 29 -9 4 -21 18 -26 32 -5 14 -14 25 -19 25
-5 0 -11 9 -14 20 -3 11 -12 20 -21 20 -9 0 -16 6 -16 13 0 30 80 77 132 77
28 1 30 2 15 11 -24 14 -66 3 -122 -32 -26 -17 -49 -28 -52 -26 -2 3 15 29 39
58 31 38 55 57 83 66 32 9 35 12 14 12 -27 1 -102 -43 -134 -79 -11 -12 -33
-31 -48 -42 l-29 -21 15 29 c27 50 94 135 128 160 27 20 29 24 13 24 -23 0
-56 -33 -102 -100 -62 -91 -146 -149 -199 -135 -19 4 -1 -21 77 -107 112 -125
213 -216 248 -225 12 -3 22 -9 22 -15 0 -5 -10 -6 -22 -3 -56 17 -109 51 -188
120 -163 145 -230 190 -312 213 -21 6 -38 9 -38 7 0 -2 26 -18 59 -35 102 -55
326 -249 307 -267 -3 -3 -25 7 -48 22 l-43 28 44 -52 c47 -56 50 -74 8 -41
-23 19 -88 50 -102 50 -4 0 -3 -4 0 -10 3 -5 -2 -10 -12 -10 -10 0 7 -14 37
-31 30 -16 62 -37 70 -46 14 -14 12 -15 -10 -10 -86 20 -233 38 -276 34 -55
-6 -177 -37 -170 -44 2 -2 32 3 67 13 91 24 223 22 281 -4 62 -27 73 -46 23
-40 -32 4 -35 2 -20 -9 10 -7 23 -14 29 -16 25 -10 -14 -26 -99 -42 -113 -20
-299 -69 -345 -90 -23 -10 -26 -14 -10 -10 195 46 244 55 318 55 124 0 111
-14 -53 -55 l-50 -13 80 -1 c72 -1 78 -3 61 -16 -10 -8 -49 -24 -85 -36 -86
-28 -92 -32 -56 -39 26 -6 15 -11 -75 -39 -304 -94 -512 -164 -575 -194 l-70
-34 -55 45 c-30 25 -78 68 -107 95 -47 45 -54 49 -86 43 -30 -6 -36 -3 -42 14
-5 16 -10 18 -26 10 -10 -6 -19 -19 -19 -29 0 -22 -21 -84 -26 -78 -4 4 47
257 67 332 19 70 59 143 97 176 43 38 140 84 222 105 61 15 88 10 143 -28 15
-11 20 -10 33 7 9 11 13 31 10 46 -7 38 16 74 90 142 62 57 65 62 59 96 -5 29
-2 41 12 54 27 24 80 44 151 57 69 12 178 1 255 -26 l41 -15 -27 29 c-15 15
-27 31 -27 34 0 2 39 -9 86 -25 83 -29 86 -30 120 -14 23 11 48 38 73 79 93
149 117 168 208 168 50 0 113 -25 194 -75 24 -16 38 -21 31 -12 -36 43 -216
117 -284 117 -18 -1 -48 -7 -67 -16z m1078 -373 c30 -32 120 -227 128 -278 4
-25 2 -33 -9 -33 -21 0 -35 19 -85 109 l-42 76 -1 -67 c0 -37 5 -70 10 -73 6
-3 10 3 10 15 0 38 18 11 31 -46 7 -30 16 -50 19 -43 16 25 25 -20 30 -141 l5
-125 20 83 c18 76 21 80 27 50 18 -89 -36 -275 -116 -398 -48 -74 -177 -230
-190 -230 -6 0 -79 -22 -161 -48 -171 -55 -163 -58 -150 46 5 44 18 71 72 150
61 89 67 103 75 172 15 116 51 194 124 270 91 95 100 129 64 258 -29 103 -26
145 11 204 33 50 63 78 87 78 8 0 26 -13 41 -29z m-321 -98 c87 -59 144 -170
145 -280 1 -50 -4 -69 -26 -102 -15 -23 -32 -41 -37 -41 -13 0 -13 -3 5 58 20
65 14 76 -37 68 -49 -8 -102 -35 -148 -75 l-35 -31 68 35 c67 34 130 45 142
25 3 -6 -5 -14 -20 -20 -30 -12 -114 -72 -115 -83 0 -4 18 2 40 13 69 35 68
24 -5 -52 -30 -31 -55 -66 -55 -76 0 -11 -28 -41 -67 -73 -104 -84 -182 -154
-214 -195 -26 -33 -28 -41 -23 -89 8 -69 -6 -109 -72 -201 -30 -41 -54 -77
-54 -80 0 -18 147 47 206 92 53 41 50 23 -5 -29 -45 -43 -173 -115 -249 -141
-26 -9 -54 -9 -120 0 -48 7 -131 13 -184 13 -80 1 -98 4 -98 16 0 25 215 444
284 553 36 57 110 163 164 235 54 73 142 196 196 275 125 180 159 212 225 212
36 0 58 -7 89 -27z m-2157 -123 c32 -18 22 -36 -37 -65 -31 -15 -74 -45 -95
-66 -32 -32 -48 -40 -92 -45 -42 -5 -55 -3 -67 11 -27 32 27 75 175 140 90 39
89 39 116 25z m-638 -134 c26 -20 21 -43 -12 -54 -37 -13 -56 5 -47 43 7 28
31 32 59 11z m81 -118 c8 -31 6 -41 -9 -58 -25 -28 -60 -25 -84 6 -42 53 -21
97 44 92 37 -3 41 -6 49 -40z m350 -110 c23 -32 17 -180 -7 -205 -3 -3 -53 28
-112 67 -123 84 -158 99 -237 100 -32 0 -58 4 -58 9 0 4 39 14 88 20 48 7 112
16 142 21 30 4 81 8 112 9 48 1 59 -2 72 -21z m1712 -16 c-25 -48 -110 -126
-176 -161 -59 -32 -94 -66 -84 -83 3 -5 -2 -18 -12 -29 -17 -18 -17 -20 0 -32
17 -12 17 -15 2 -30 -12 -11 -13 -18 -4 -23 7 -5 2 -15 -18 -31 -16 -12 -23
-23 -16 -23 9 0 11 -7 7 -20 -4 -13 -2 -20 6 -20 8 0 4 -9 -8 -22 -11 -13 -27
-41 -34 -63 -15 -47 -36 -75 -56 -75 -8 0 -21 -16 -29 -35 -17 -40 -33 -50
-69 -41 -43 11 -50 38 -50 207 0 142 -2 159 -20 178 -14 16 -26 20 -45 16 -34
-9 -34 -9 -16 -44 24 -46 19 -83 -21 -161 -35 -68 -36 -72 -25 -115 26 -98 5
-138 -94 -174 -101 -38 -91 -41 -185 56 -46 48 -106 123 -132 166 -26 43 -54
88 -63 102 -15 23 -15 24 58 66 158 93 426 196 583 224 290 53 349 73 455 158
30 24 56 43 58 42 2 -2 -4 -17 -12 -33z m-2351 -17 c29 -13 29 -13 -30 -14
-59 -1 -62 -2 -106 -48 -25 -27 -56 -64 -69 -83 -13 -19 -25 -37 -27 -40 -8
-9 -23 26 -23 55 0 23 13 42 60 87 57 56 61 58 112 58 29 -1 67 -7 83 -15z
m263 -50 c80 -37 68 -47 -51 -39 -116 8 -218 -6 -278 -37 -31 -16 -39 -17 -39
-5 0 19 55 64 105 87 63 29 195 26 263 -6z m-29 -56 c36 -5 100 -22 144 -36
73 -24 77 -27 57 -38 -23 -12 -23 -12 9 -31 17 -10 30 -23 28 -29 -2 -5 3 -15
12 -22 13 -10 8 -12 -29 -13 l-45 0 44 -20 c24 -11 42 -22 40 -25 -3 -2 -36 1
-74 7 -139 21 -267 -5 -325 -67 -22 -24 -23 -26 -5 -44 27 -31 88 -34 240 -11
163 24 399 36 435 22 22 -8 16 -11 -53 -27 -99 -24 -83 -35 51 -35 78 0 103
-3 100 -12 -3 -7 -22 -18 -44 -24 l-39 -11 58 -8 c62 -8 64 -13 14 -32 l-32
-11 48 -1 c57 -1 62 -18 7 -27 -60 -10 -59 -24 2 -24 82 -1 37 -19 -74 -29
-51 -5 -105 -13 -120 -16 -42 -11 -71 1 -130 51 -59 52 -103 74 -145 74 -16 0
-73 -11 -128 -25 -178 -46 -275 -34 -329 38 -38 51 -32 236 9 318 19 35 74 89
110 105 37 16 80 17 164 3z m622 -195 l24 -27 -27 18 c-16 9 -28 21 -28 26 0
14 5 11 31 -17z m-1389 -53 c-2 -64 -13 -122 -34 -174 -9 -24 -16 -28 -42 -25
-30 3 -31 5 -34 53 -5 78 6 130 39 175 22 30 36 40 52 38 20 -3 22 -8 19 -67z
m1696 -138 c27 -43 68 -110 90 -148 22 -39 66 -95 99 -125 87 -82 163 -169
163 -187 0 -14 -3 -14 -22 4 -41 36 -52 37 -25 1 15 -19 27 -43 27 -53 0 -17
-3 -16 -25 5 l-25 23 0 -22 0 -22 -26 20 c-21 16 -41 21 -91 21 -47 0 -63 -3
-60 -12 3 -9 22 -12 61 -10 31 2 56 1 56 -2 0 -11 -70 -46 -92 -46 -14 0 -36
13 -52 29 -31 32 -48 100 -86 337 -11 66 -29 150 -40 185 -22 73 -23 79 -11
79 5 0 31 -35 59 -77z m-1598 -226 c0 -7 -7 -23 -17 -36 -12 -17 -16 -42 -14
-87 1 -35 -1 -64 -6 -64 -25 1 -89 49 -98 74 -9 27 -6 32 43 77 51 47 92 63
92 36z m1354 -132 c9 -14 21 -23 27 -19 6 3 19 -2 30 -12 17 -16 19 -16 19 -1
0 28 16 19 28 -15 l12 -33 -5 33 c-5 38 10 44 19 7 4 -14 12 -24 18 -22 14 2
46 -230 47 -340 1 -54 -2 -63 -17 -63 -22 0 -44 36 -81 138 -17 44 -55 128
-86 186 -54 105 -70 166 -41 166 7 0 21 -11 30 -25z m-1274 -22 c-4 -16 -15
-44 -24 -64 -14 -34 -14 -37 2 -35 12 1 18 -8 20 -27 3 -27 4 -28 17 -10 13
17 14 15 15 -14 0 -26 3 -31 17 -26 14 5 15 1 10 -25 -7 -32 6 -45 17 -17 8
22 40 20 33 -2 -44 -132 -59 -201 -64 -282 -6 -93 -7 -96 -44 -136 -48 -52
-69 -128 -51 -179 7 -18 12 -71 12 -117 l0 -85 68 -47 c74 -50 122 -96 90 -84
-25 9 -22 -6 7 -33 28 -26 33 -45 10 -36 -22 8 -18 -2 9 -27 28 -25 76 -134
76 -171 0 -31 -34 -56 -75 -56 -33 0 -110 43 -158 89 -32 29 -72 90 -65 97 3
2 22 -10 44 -27 56 -46 155 -109 169 -109 10 0 11 10 5 35 -10 44 -23 61 -74
93 -22 13 -79 58 -128 100 -88 74 -89 77 -83 111 4 20 18 63 32 96 46 109 43
121 -29 144 -47 15 -55 27 -34 50 24 26 20 45 -25 144 -41 88 -42 91 -35 171
12 160 23 232 43 276 20 44 176 230 193 230 5 0 5 -12 0 -27z m1023 -18 c99
-47 175 -106 220 -172 25 -37 70 -159 83 -228 l6 -35 -33 17 c-19 10 -35 21
-37 26 -2 4 -8 7 -13 7 -5 0 -3 -13 6 -30 8 -16 15 -31 15 -35 0 -12 -25 -4
-46 16 l-21 20 4 -28 c3 -15 12 -50 20 -76 8 -27 13 -50 11 -53 -3 -2 -25 17
-49 43 -36 38 -47 60 -58 108 -23 110 -31 126 -67 141 -43 18 -107 75 -136
122 -23 37 -35 32 -19 -9 5 -13 41 -67 80 -119 65 -87 92 -139 59 -113 -7 6
-31 14 -53 18 -21 3 -51 15 -66 26 -20 14 -36 17 -60 12 -27 -5 -31 -4 -26 10
8 20 5 20 -26 6 -15 -7 -35 -7 -58 -1 -35 9 -36 12 -23 47 4 13 4 17 -3 10 -5
-5 -18 -32 -27 -58 -15 -39 -21 -47 -37 -42 -10 4 -19 2 -19 -3 0 -12 -58 -37
-66 -29 -4 3 3 17 13 31 20 25 31 61 53 171 15 73 48 140 88 179 28 26 34 28
80 21 44 -6 52 -4 78 19 16 14 30 26 31 26 1 0 45 -20 96 -45z m1075 3 c69
-46 72 -56 43 -132 -10 -24 -16 -28 -41 -24 -28 4 -29 4 -13 -14 15 -17 14
-18 -21 -18 -21 0 -46 5 -56 10 -23 12 -122 169 -114 181 6 10 91 37 119 38
11 1 48 -18 83 -41z m-2351 -32 c4 -8 23 -16 42 -18 45 -4 50 -24 13 -45 -16
-9 -35 -25 -41 -35 -6 -9 -17 -75 -26 -145 -27 -230 -37 -293 -46 -293 -10 0
-14 41 -10 105 3 67 -17 19 -25 -58 -4 -37 -11 -70 -15 -73 -5 -3 -9 4 -9 15
0 12 -4 21 -10 21 -5 0 -10 -6 -10 -14 0 -7 -3 -27 -6 -43 l-6 -30 74 5 c82 5
91 0 101 -55 8 -43 -8 -51 -46 -22 -22 16 -50 24 -89 27 -48 4 -60 8 -74 30
-15 23 -16 41 -7 172 12 162 16 174 87 260 50 60 66 108 46 145 -17 32 -4 65
25 65 13 0 28 -6 32 -14z m493 -122 c0 -3 -5 -15 -11 -26 -11 -20 -10 -20 12
-4 35 24 41 20 24 -15 -17 -33 -13 -51 7 -31 16 16 52 16 42 1 -5 -9 1 -10 20
-5 25 6 26 5 17 -13 -6 -11 -22 -28 -36 -39 -35 -28 -31 -35 8 -13 17 11 43
22 56 26 20 6 23 4 18 -9 -5 -13 3 -11 37 9 62 36 76 31 34 -12 -26 -27 -40
-53 -48 -88 -17 -79 -80 -175 -162 -247 -105 -93 -147 -123 -158 -112 -17 17
8 76 48 118 63 66 182 208 182 217 0 4 -19 2 -41 -6 -23 -8 -50 -15 -61 -15
-10 0 -41 -20 -68 -46 l-48 -45 -7 30 c-14 66 33 230 86 294 27 33 49 47 49
31z m1513 -74 c-2 -36 -9 -83 -17 -105 -20 -56 -39 -142 -34 -156 2 -7 12 25
23 70 27 118 39 114 32 -10 -4 -62 -3 -94 3 -79 4 14 8 42 9 62 1 50 11 74 22
56 5 -7 9 -23 9 -35 0 -13 5 -22 13 -20 8 1 15 -30 22 -113 7 -79 11 -99 13
-65 1 28 5 61 9 75 l6 25 7 -30 c19 -77 3 -258 -36 -409 -8 -32 -13 -60 -10
-63 8 -8 36 104 56 229 30 179 41 189 37 33 -2 -71 -2 -123 0 -115 2 8 11 60
21 115 13 74 21 100 32 100 36 0 36 -204 -1 -335 -64 -233 -287 -480 -509
-565 -95 -36 -134 -69 -126 -107 4 -22 2 -28 -12 -28 -41 0 -54 47 -27 100 13
26 72 69 211 155 63 39 74 63 74 160 0 85 -16 292 -26 331 -8 32 -22 30 -29
-3 -20 -94 -62 -208 -78 -211 -12 -3 -15 1 -11 15 3 10 -11 -13 -31 -52 -66
-126 -75 -125 -35 5 33 103 40 156 10 72 -24 -68 -59 -130 -78 -137 -11 -4
-12 -1 -6 12 24 57 55 159 59 200 6 54 5 52 -43 -59 -29 -68 -43 -75 -31 -15
13 67 12 73 -11 52 -24 -22 -25 -14 -4 26 18 37 14 46 -10 20 -9 -10 -21 -47
-27 -81 -19 -119 -49 -129 -49 -17 0 32 7 74 16 95 10 21 17 67 18 107 1 63 5
76 38 125 39 57 54 106 64 201 15 156 94 97 169 -125 14 -41 25 -85 25 -98 0
-14 8 -42 19 -63 l18 -38 5 169 c6 177 21 253 85 422 46 123 77 175 102 170
13 -3 16 -16 14 -68z m-2352 -19 c24 -15 63 -46 87 -67 l43 -39 -21 -32 -20
-33 -35 20 c-19 11 -35 18 -35 15 0 -2 9 -20 21 -39 29 -50 5 -48 -46 4 -54
55 -67 51 -16 -5 43 -47 51 -69 26 -79 -8 -3 -15 -12 -15 -19 0 -8 -9 -22 -19
-31 -19 -17 -20 -17 -40 22 -22 43 -70 88 -110 104 -14 6 -57 14 -94 18 -38 4
-74 13 -79 18 -7 7 4 24 35 55 54 52 101 67 208 67 l72 0 -23 25 c-22 24 -22
25 -4 25 11 0 40 -13 65 -29z m-491 -83 c95 -29 110 -41 110 -88 0 -47 -11
-50 -52 -15 -43 36 -88 59 -88 44 0 -8 -7 -6 -18 4 -10 10 -30 17 -45 17 -26
0 -57 31 -57 58 0 17 52 10 150 -20z m-174 -128 c25 -10 26 -13 22 -65 -3 -37
-14 -69 -34 -102 -38 -61 -75 -75 -198 -71 -85 3 -89 4 -91 26 -1 12 4 22 12
22 25 0 -10 41 -41 47 -27 6 -28 7 -11 20 11 7 17 13 14 13 -10 0 -109 -37
-116 -43 -17 -17 -22 -4 -9 21 35 67 103 109 221 135 40 9 204 7 231 -3z
m2004 -55 c186 -25 301 -73 268 -112 -7 -9 -62 -49 -123 -88 -60 -39 -138 -95
-172 -124 -35 -28 -63 -49 -63 -46 0 15 35 70 68 108 40 45 20 34 -40 -22 -40
-37 -57 -37 -37 0 10 19 6 18 -27 -9 -42 -35 -59 -41 -50 -17 7 20 -3 19 -26
-2 -17 -15 -18 -15 -18 12 0 27 -1 27 -18 12 -25 -23 -35 -21 -26 6 6 22 6 22
-21 -3 -15 -14 -37 -45 -48 -70 -15 -33 -21 -40 -24 -27 -6 24 11 67 55 139
33 55 34 61 30 133 -4 65 -2 80 14 101 17 21 27 24 86 24 37 0 114 -7 172 -15z
m5500 -280 c-7 -8 -57 -47 -112 -86 -76 -55 -102 -68 -109 -58 -10 16 -11 15
-38 -38 -25 -50 -36 -55 -27 -13 10 54 -3 32 -26 -42 -21 -71 -22 -72 -28 -38
-8 41 -13 32 -34 -55 l-14 -60 -1 58 c-2 111 24 198 115 380 l85 169 101 -101
c84 -85 99 -103 88 -116z m-6890 116 c-10 -42 -9 -58 9 -119 29 -95 29 -142 1
-202 -28 -59 -44 -65 -35 -12 4 23 -2 68 -14 122 -32 131 -24 207 27 263 22
25 27 7 12 -52z m1816 12 c40 -27 73 -52 73 -56 3 -31 -142 -208 -191 -233
-31 -16 -58 -10 -39 9 16 16 13 27 -6 27 -17 1 -17 1 0 14 13 10 15 15 5 19
-10 3 -8 9 6 26 19 21 19 21 -4 21 -18 0 -20 3 -11 14 9 11 9 15 -1 19 -10 5
-10 9 2 19 8 7 20 23 27 35 11 19 9 22 -17 32 -35 12 -39 27 -10 36 11 3 29
19 40 36 12 16 29 29 38 29 8 0 48 -21 88 -47z m4587 -75 c-8 -40 -25 -120
-38 -178 -36 -153 -38 -192 -21 -325 9 -65 16 -160 16 -210 0 -112 -20 -357
-31 -369 -4 -4 -15 5 -26 20 -16 25 -18 52 -19 249 0 121 -6 265 -12 320 -7
55 -10 118 -7 140 10 64 136 425 149 425 1 0 -4 -33 -11 -72z m-6059 4 c3 -5
-18 -48 -45 -96 -57 -97 -58 -109 -9 -168 22 -26 41 -38 70 -43 35 -6 90 -50
90 -73 0 -4 7 -64 14 -133 11 -97 22 -143 45 -199 17 -40 34 -89 37 -110 l6
-37 76 -12 c126 -19 157 -59 83 -105 -21 -14 -48 -37 -60 -52 -28 -35 -45 -99
-32 -122 12 -22 107 -112 144 -137 15 -10 26 -20 23 -22 -6 -6 -166 90 -206
124 -28 23 -30 30 -30 92 0 55 4 73 26 104 14 21 23 41 20 45 -4 3 -26 1 -51
-6 -24 -6 -50 -13 -57 -14 -9 -2 -14 11 -16 41 -2 25 -9 50 -17 55 -8 6 -31
45 -53 88 l-39 76 5 119 5 119 -27 12 c-38 17 -40 16 -16 -19 25 -34 19 -50
-10 -31 -23 14 -25 9 -10 -19 13 -24 3 -25 -23 -1 -19 16 -20 16 -8 -5 21 -41
11 -48 -15 -9 -36 52 -107 243 -108 287 -1 53 55 158 113 213 50 46 65 54 75
38z m1237 -40 c-16 -20 -38 -46 -50 -56 -17 -15 -21 -31 -21 -77 0 -50 3 -60
22 -70 12 -7 54 -42 93 -78 39 -36 85 -74 103 -83 47 -25 41 -44 -18 -57 -68
-15 -77 -14 -98 7 -9 9 -29 25 -42 35 -24 18 -24 18 -2 13 32 -6 28 -1 -23 28
-49 29 -73 62 -57 78 7 7 4 21 -9 42 -13 22 -19 49 -18 91 l0 60 65 58 c71 63
102 68 55 9z m4710 -25 c-23 -36 -57 -102 -77 -148 -41 -101 -84 -172 -180
-302 -80 -107 -79 -102 -94 -295 -5 -72 -16 -147 -23 -165 -8 -17 -39 -69 -70
-114 -81 -119 -85 -144 -42 -246 11 -26 -16 -12 -40 21 -16 21 -20 43 -20 97
0 65 3 76 42 141 l42 70 11 160 c24 344 74 548 140 569 11 3 20 12 20 18 1 21
60 108 78 114 20 8 68 40 99 67 27 23 39 16 23 -14 -21 -40 -4 -30 28 15 29
42 90 90 100 80 3 -2 -14 -33 -37 -68z m-6616 -9 c34 -15 32 -29 -5 -22 -22 5
-31 2 -36 -9 -3 -9 -22 -21 -42 -28 -21 -6 -52 -20 -70 -31 -33 -20 -34 -20
-95 -2 -46 14 -93 19 -184 18 -68 0 -123 1 -123 3 0 8 103 53 127 55 15 2 62
-1 103 -5 61 -6 89 -4 150 12 87 23 139 26 175 9z m681 -63 c5 -11 16 -13 44
-9 31 5 40 3 48 -12 12 -24 6 -42 -26 -76 -32 -34 -38 -35 -46 -4 -4 18 -11
23 -26 19 -24 -6 -70 21 -70 42 0 14 46 55 62 55 5 0 11 -7 14 -15z m2983 -66
c31 -5 171 -13 311 -18 421 -16 619 -58 898 -191 332 -159 623 -427 847 -780
68 -108 230 -419 222 -427 -3 -2 -41 1 -84 8 -104 17 -485 17 -583 0 -158 -27
-355 -84 -482 -140 -27 -11 -48 -17 -48 -13 0 19 468 471 508 491 95 48 201
48 257 -2 55 -48 37 -115 -42 -152 -36 -17 -37 -17 -55 5 -18 23 -18 23 12 41
36 22 39 52 8 73 -34 24 -85 20 -113 -9 -19 -18 -25 -35 -25 -69 0 -92 53
-141 151 -140 96 1 162 60 175 157 9 65 -29 146 -87 184 -37 24 -51 28 -118
27 -126 0 -202 -33 -331 -144 -37 -31 -51 -38 -47 -25 4 11 17 52 29 90 19 57
23 93 23 190 0 112 -2 124 -29 179 -16 32 -54 84 -85 115 -82 82 -174 123
-408 181 -185 47 -299 87 -315 113 -13 20 -9 74 6 86 19 16 29 -1 20 -34 -8
-33 11 -55 47 -55 34 0 59 32 59 75 -1 85 -125 137 -194 81 l-30 -23 -36 38
c-34 36 -41 39 -89 39 -47 0 -57 -4 -87 -34 -19 -19 -34 -41 -34 -49 0 -29 19
-66 40 -77 29 -16 70 11 70 45 0 16 6 25 15 25 22 0 20 -63 -3 -83 -30 -27
-114 -37 -321 -37 -369 0 -510 -59 -614 -257 l-37 -71 0 -158 0 -159 -36 55
c-74 112 -151 176 -252 211 -121 42 -215 12 -264 -85 -38 -75 -23 -163 39
-220 31 -29 111 -51 156 -42 42 9 85 52 98 98 24 90 -69 161 -138 106 -20 -16
-15 -37 12 -62 24 -22 24 -25 10 -40 -20 -19 -19 -19 -54 -2 -52 27 -76 90
-51 136 5 10 30 26 55 35 38 15 52 16 92 6 104 -26 172 -87 265 -237 91 -148
180 -305 175 -310 -3 -3 -36 15 -73 39 -188 121 -376 191 -639 238 -66 11
-121 22 -123 23 -1 2 6 23 17 47 10 24 24 78 31 119 15 94 29 120 77 152 75
49 121 68 170 68 68 0 175 -25 240 -55 31 -14 58 -23 60 -21 8 8 -124 96 -182
121 l-57 26 37 40 c50 56 125 173 196 306 l60 111 47 11 c216 48 446 59 631
30z m-3454 -33 c13 -13 27 -41 30 -62 4 -22 11 -49 17 -60 10 -22 -3 -64 -20
-64 -22 0 -62 59 -68 100 -4 25 -13 57 -20 71 -7 15 -10 29 -7 33 13 13 45 5
68 -18z m-590 -28 c34 -15 32 -44 -6 -78 -36 -34 -62 -44 -95 -36 -31 8 -31
24 0 36 14 5 26 20 31 37 7 30 23 53 36 53 4 0 20 -5 34 -12z m8623 -32 c80
-41 143 -124 142 -188 -1 -20 -4 -18 -20 13 -10 20 -47 60 -82 89 -70 60 -98
88 -98 101 0 13 6 12 58 -15z m-911 -1 c14 -10 26 -35 34 -69 10 -47 9 -77
-11 -213 -12 -87 -28 -169 -35 -182 -14 -28 -275 -166 -275 -146 0 7 19 34 43
60 45 52 69 87 117 178 39 73 32 75 -10 2 -56 -98 -75 -88 -31 15 34 78 40
113 13 65 l-17 -30 -5 50 c-5 45 -7 50 -29 47 -20 -2 -22 1 -17 24 9 34 65
122 112 173 40 45 73 52 111 26z m-5919 -11 c12 -8 26 -24 32 -34 21 -39 -74
-180 -121 -180 -7 0 -6 9 5 25 11 16 16 46 16 89 0 71 13 116 33 116 7 0 23
-7 35 -16z m6041 -39 c71 -51 66 -75 -15 -75 -37 0 -50 18 -61 89 -7 41 1 40
76 -14z m-5705 -74 c20 -32 36 -64 36 -71 0 -17 -131 -150 -148 -150 -10 0
-12 7 -8 24 6 24 6 24 -24 9 -17 -8 -35 -23 -40 -34 -14 -26 -29 -24 -24 4 2
12 -1 7 -8 -10 -12 -36 -24 -42 -31 -15 -3 11 -5 9 -6 -8 -1 -26 -17 -58 -24
-50 -2 3 -9 14 -14 24 -10 18 -11 18 -18 -3 -5 -16 1 -32 20 -57 15 -19 25
-37 22 -40 -11 -11 -59 10 -78 35 -18 22 -20 34 -14 81 3 30 13 78 21 107 13
49 17 53 52 58 94 16 139 47 189 132 31 53 46 48 97 -36z m-2690 -7 c18 -7 22
-59 6 -69 -25 -16 -55 47 -33 68 8 8 8 8 27 1z m5203 -137 c67 -34 129 -52
273 -82 69 -14 136 -28 149 -31 l24 -5 -30 -32 c-45 -47 -63 -90 -63 -147 0
-79 37 -133 112 -165 78 -32 161 -10 206 55 35 53 25 106 -32 159 -31 29 -93
34 -109 9 -8 -13 -5 -25 16 -57 15 -22 27 -54 27 -71 0 -28 -2 -30 -39 -30
-32 0 -44 6 -75 40 -47 52 -49 95 -5 144 35 40 84 55 120 36 13 -7 52 -40 87
-74 54 -52 66 -71 85 -131 33 -107 29 -193 -18 -333 -21 -62 -54 -140 -74
-172 -88 -145 -293 -362 -468 -495 -51 -38 -90 -71 -89 -73 2 -2 39 14 82 36
179 90 485 197 675 236 307 63 616 45 838 -48 l74 -31 29 -85 c45 -132 124
-449 153 -620 23 -130 28 -195 32 -404 5 -213 3 -260 -12 -332 -19 -91 -35
-118 -35 -59 0 47 -20 84 -66 125 l-38 33 23 39 c15 27 24 62 28 111 4 63 2
78 -20 118 -22 40 -24 56 -20 106 4 47 1 67 -15 99 -25 50 -79 98 -125 113
-35 12 -47 31 -47 77 0 29 -54 100 -89 119 -17 8 -48 15 -70 15 -37 0 -41 3
-59 43 -24 52 -76 101 -124 116 -29 10 -48 9 -91 -2 l-55 -15 -31 44 c-42 60
-84 84 -147 84 -39 0 -61 -6 -89 -26 l-38 -25 -31 29 c-17 16 -41 35 -53 41
-36 18 -106 13 -155 -12 l-45 -23 -59 28 c-67 32 -128 36 -164 12 -14 -10 -44
-35 -67 -57 l-41 -39 -48 16 c-82 28 -131 18 -192 -38 -40 -38 -56 -91 -47
-167 7 -57 6 -58 -30 -90 -65 -57 -78 -105 -50 -177 l16 -39 -41 -40 c-36 -36
-40 -46 -40 -89 0 -32 7 -61 20 -82 l21 -34 -22 -45 c-17 -35 -20 -57 -17
-104 5 -70 27 -105 84 -135 34 -18 39 -25 42 -60 4 -74 13 -104 39 -134 31
-37 87 -67 141 -76 39 -6 40 -8 47 -52 17 -112 79 -162 216 -177 66 -7 67 -8
85 -46 22 -50 90 -113 139 -129 37 -12 150 -9 186 5 11 4 24 -8 46 -43 40 -65
97 -92 190 -92 43 0 83 7 108 18 l40 18 45 -34 c68 -53 117 -72 185 -72 77 0
102 14 145 78 32 49 36 52 78 52 99 0 159 68 176 200 4 25 18 63 32 85 19 30
24 34 19 15 -3 -14 -17 -74 -31 -135 -35 -154 -61 -205 -143 -285 -119 -115
-225 -158 -459 -186 -265 -31 -335 -77 -288 -189 20 -47 68 -59 216 -53 134 6
232 34 343 99 83 49 199 156 234 216 14 24 27 42 29 40 9 -9 -27 -161 -42
-178 -19 -21 -98 -61 -294 -150 -205 -93 -188 -88 -210 -59 -15 20 -20 22 -34
11 -22 -18 -20 -38 5 -51 20 -11 20 -12 -12 -36 -41 -30 -50 -30 -79 1 -28 30
-36 31 -45 8 -4 -12 2 -24 20 -38 l25 -21 -30 -29 c-29 -28 -30 -28 -50 -10
-11 10 -20 24 -20 30 0 19 -26 36 -44 29 -25 -9 -19 -35 15 -70 l32 -33 -20
-31 -20 -32 -40 46 c-22 25 -48 46 -57 46 -25 0 -19 -36 9 -54 14 -9 32 -28
41 -41 16 -24 15 -27 -7 -60 -13 -19 -27 -35 -30 -35 -7 0 -61 77 -71 103 -10
24 -48 22 -48 -2 0 -11 5 -23 11 -26 17 -11 69 -87 69 -101 0 -14 -57 -84 -69
-84 -12 0 -50 75 -59 116 -6 30 -13 40 -30 42 -31 5 -28 -13 13 -99 19 -41 35
-78 35 -84 0 -19 -59 -70 -69 -59 -5 5 -21 41 -36 79 -34 90 -39 99 -57 103
-27 5 -30 -29 -5 -62 32 -41 53 -84 61 -123 7 -29 4 -34 -33 -59 -47 -31 -71
-26 -71 13 0 35 -43 170 -58 185 -9 9 -16 8 -29 -5 -16 -16 -15 -18 9 -44 36
-37 48 -73 48 -139 0 -60 -5 -65 -82 -79 l-34 -6 -13 68 c-8 37 -14 88 -15
112 -1 47 -20 69 -50 58 -22 -9 -20 -32 10 -92 32 -67 31 -138 -2 -143 -28 -4
-42 16 -54 76 -5 28 -19 62 -31 76 -12 14 -45 64 -73 110 -87 144 -206 296
-327 418 -101 102 -123 118 -169 132 -68 20 -129 20 -202 0 -45 -13 -62 -14
-71 -5 -6 6 -21 11 -34 11 -12 0 -51 15 -85 33 -56 29 -70 32 -147 32 -86 0
-86 0 -225 -67 -76 -38 -144 -68 -150 -68 -7 0 -54 -41 -105 -90 -63 -61 -99
-89 -110 -85 -12 3 -22 -8 -39 -44 -13 -29 -45 -70 -77 -99 -30 -28 -55 -54
-55 -58 0 -4 -12 -31 -27 -61 -18 -34 -33 -53 -43 -51 -40 8 -7 132 51 190 44
44 46 50 23 73 -23 23 -48 15 -52 -17 -2 -15 -21 -61 -43 -103 -21 -42 -39
-82 -39 -90 0 -27 -18 -24 -65 11 -42 33 -46 39 -41 67 13 62 53 135 85 152
39 20 43 55 6 55 -14 0 -25 -6 -25 -14 0 -7 -10 -26 -22 -41 -12 -15 -36 -55
-54 -88 l-31 -59 -36 47 c-31 40 -35 50 -25 69 22 43 60 86 89 102 22 11 29
21 27 37 -4 26 -48 38 -48 13 0 -9 -15 -33 -34 -53 -18 -21 -38 -48 -45 -60
-16 -32 -24 -29 -50 17 -26 46 -27 41 46 122 49 54 55 78 18 78 -18 0 -25 -5
-25 -20 0 -23 -77 -103 -91 -94 -5 3 -19 24 -30 47 l-21 41 30 25 c17 15 42
34 56 44 29 20 33 35 11 43 -8 4 -32 -9 -57 -30 -23 -20 -46 -36 -50 -36 -5 0
-15 15 -23 32 -17 41 -5 65 38 76 32 8 47 36 29 54 -6 6 -26 -2 -56 -24 l-47
-33 -19 25 c-26 34 -25 38 14 61 40 24 50 43 31 59 -12 10 -22 6 -52 -20 l-37
-33 -28 32 c-30 34 -29 51 3 51 22 0 34 22 25 45 -5 14 -11 13 -45 -7 l-40
-23 -25 24 c-28 27 -34 51 -12 51 7 0 19 6 25 14 10 12 22 10 81 -10 39 -14
99 -27 134 -31 56 -5 65 -3 83 16 39 42 38 106 -3 143 -28 25 -142 79 -279
131 -155 60 -232 106 -322 191 -199 187 -234 357 -163 791 64 395 168 774 325
1186 l67 176 113 38 c72 23 149 58 207 92 l93 56 125 -12 c469 -43 866 -225
1150 -528 92 -99 75 -68 -45 82 -161 200 -204 272 -276 470 -31 87 -32 95 -33
255 l-1 165 39 78 c21 42 54 91 74 108 42 37 147 89 180 89 50 0 102 -60 104
-120 2 -68 -90 -129 -156 -104 -28 11 -18 49 24 88 44 40 48 56 24 80 -21 21
-46 20 -100 -5 -90 -43 -99 -134 -19 -209 23 -21 38 -25 103 -28 68 -3 81 -1
112 20 83 56 105 155 56 253 l-25 48 152 -6 c202 -8 294 3 377 45 l65 33 37
-37 c21 -21 59 -48 85 -61z m-4731 84 c-4 -5 -25 -12 -49 -16 -60 -9 -77 -15
-77 -26 0 -6 5 -7 10 -4 6 4 10 -6 10 -22 1 -27 1 -27 15 -9 15 19 15 19 15
-3 0 -20 2 -21 15 -11 13 11 15 8 16 -16 0 -29 0 -29 12 -6 10 22 12 20 24
-30 12 -46 23 -62 89 -123 73 -67 76 -72 80 -120 2 -27 1 -43 -2 -35 -2 9 -33
23 -72 34 -63 18 -73 25 -169 122 -96 95 -103 105 -102 141 0 21 6 56 13 78
10 34 16 41 46 46 56 10 132 10 126 0z m8785 -57 c20 -18 177 -251 203 -301
17 -34 32 -143 19 -143 -5 0 -14 21 -21 46 -7 26 -25 59 -40 74 -36 36 -48 53
-73 95 -25 41 -32 44 -23 10 6 -25 -9 -35 -21 -15 -5 8 -11 7 -21 -1 -11 -9
-15 -8 -20 5 -3 9 -10 16 -16 16 -5 0 -7 -4 -4 -8 2 -4 1 -14 -4 -21 -6 -10
-14 -2 -30 28 -33 67 -34 42 0 -33 16 -36 43 -95 59 -131 17 -36 27 -65 23
-65 -4 0 -35 46 -69 103 -34 56 -91 135 -127 175 -58 63 -96 118 -96 137 0 9
69 37 125 50 57 13 107 5 136 -21z m-5911 1 c-66 -173 -206 -340 -387 -461
-99 -67 -112 -79 -94 -86 12 -4 21 -14 21 -22 0 -24 -108 -115 -151 -126 -21
-6 -39 -15 -39 -20 0 -4 -15 -13 -34 -20 -21 -7 -33 -17 -32 -27 1 -23 -41
-43 -91 -43 -32 0 -43 -4 -43 -15 0 -22 -18 -18 -25 6 -8 23 1 67 18 87 6 7
57 35 114 62 57 27 103 53 103 59 0 5 -64 -13 -142 -40 -173 -61 -206 -64
-247 -25 -17 16 -38 45 -47 64 -43 90 -34 134 12 57 25 -44 47 -58 25 -17 -6
12 -11 38 -11 60 0 21 -3 41 -6 45 -4 3 -22 0 -41 -8 -20 -8 -39 -15 -43 -15
-17 0 -33 87 -18 96 4 3 8 16 8 30 0 13 2 24 5 24 20 0 121 -47 145 -67 28
-23 30 -29 30 -91 -1 -59 -8 -91 -35 -154 -6 -15 -2 -18 19 -18 14 0 33 8 42
18 19 22 72 141 129 290 51 132 147 273 211 309 51 29 158 58 181 49 14 -6 1
-15 -53 -41 -75 -34 -119 -69 -109 -85 4 -6 25 -10 48 -10 l42 -1 -29 -24 -30
-24 37 9 c36 8 37 7 32 -13 -4 -12 -22 -37 -41 -55 -41 -39 -42 -45 -8 -31 28
10 40 7 30 -9 -3 -5 -48 -35 -100 -66 -113 -67 -130 -86 -44 -47 133 60 205
68 108 13 -67 -38 -63 -40 20 -7 35 14 66 22 69 19 3 -3 -10 -19 -29 -36 l-35
-30 38 16 c20 9 54 23 75 32 l37 16 -25 -27 -25 -28 25 13 c115 59 209 152
284 281 27 46 60 101 73 122 27 42 48 51 33 12z m-2805 -55 c10 -20 23 -30 38
-30 12 0 35 -7 50 -15 15 -8 25 -9 21 -3 -5 8 2 9 22 3 16 -4 59 -9 96 -12 60
-4 70 -8 93 -35 47 -55 42 -108 -10 -108 -16 0 -30 11 -44 36 -28 47 -47 40
-43 -17 l4 -44 -22 28 c-29 36 -121 104 -168 124 -49 20 -72 42 -72 68 0 19 7
35 16 35 2 0 10 -13 19 -30z m8199 9 c28 -22 51 -57 42 -66 -3 -3 -21 5 -40
17 -33 20 -36 20 -36 4 0 -18 141 -313 150 -314 3 0 14 17 25 38 25 47 119 98
162 87 29 -7 133 -104 133 -123 0 -18 -14 -14 -51 13 -71 52 -94 60 -139 46
-42 -13 -64 -29 -91 -70 l-15 -24 -51 17 c-28 9 -73 32 -99 51 -27 19 -53 35
-57 35 -5 0 -25 -13 -45 -30 -20 -16 -64 -41 -97 -55 -32 -15 -72 -36 -87 -46
-24 -17 -29 -18 -34 -5 -9 23 13 54 56 81 22 14 40 31 40 38 0 23 22 38 37 26
10 -9 13 -6 13 14 0 22 28 125 37 137 2 2 8 -2 13 -10 7 -10 10 2 10 41 0 67
10 82 26 37 l12 -33 1 46 c1 70 34 88 85 48z m-879 -84 c-33 -31 -69 -59 -81
-64 -18 -8 -22 -21 -27 -87 -4 -42 -7 -98 -8 -123 l-1 -46 -8 35 c-5 19 -11
73 -15 120 -4 47 -9 93 -11 103 -4 13 5 22 38 36 24 10 65 32 92 50 77 48 87
37 21 -24z m-6850 -65 c3 -5 1 -10 -4 -10 -6 0 -11 5 -11 10 0 6 2 10 4 10 3
0 8 -4 11 -10z m-347 -20 c18 -11 37 -32 42 -46 12 -32 13 -141 1 -148 -10 -7
-21 41 -21 92 0 28 -8 42 -40 72 -22 20 -40 40 -40 43 0 13 25 7 58 -13z
m6198 -227 c-1 -224 5 -249 120 -484 87 -178 102 -200 233 -348 55 -63 99
-117 96 -119 -7 -8 -140 117 -205 194 -127 149 -248 336 -287 442 -22 64 -22
249 1 357 16 77 35 145 40 145 1 0 2 -84 2 -187z m-5963 125 c6 -42 3 -44 -28
-24 -27 18 -33 41 -12 49 26 11 35 6 40 -25z m-768 -98 c7 -8 23 -38 36 -67
20 -46 24 -50 35 -35 8 11 13 12 14 5 0 -7 9 -13 20 -13 12 0 20 -7 21 -17 1
-17 2 -17 6 0 7 29 21 19 34 -23 7 -22 14 -39 16 -37 4 5 -45 236 -53 249 -3
4 -1 8 4 8 5 0 19 -32 32 -72 12 -39 50 -125 82 -190 33 -64 58 -124 55 -132
-13 -34 -174 -33 -208 1 -17 17 -81 168 -115 272 -15 48 -18 118 -6 148 5 12
8 2 10 -32 2 -27 9 -57 17 -65z m7165 59 c0 -43 -31 -102 -110 -207 -89 -121
-93 -138 -54 -282 7 -25 7 -25 -14 -6 -12 10 -32 49 -44 87 -27 86 -19 117 56
220 29 41 68 101 86 134 55 100 80 117 80 54z m214 -60 c7 -73 22 -114 62
-162 18 -22 24 -41 24 -78 0 -27 7 -66 15 -87 18 -43 99 -128 170 -179 74 -53
115 -95 115 -115 0 -21 1 -21 -171 -5 -119 12 -194 10 -380 -8 -71 -7 -77 -6
-104 17 l-27 24 66 -4 c36 -2 66 -2 66 1 0 3 -13 19 -30 35 -19 19 -30 41 -30
58 0 27 0 27 21 8 21 -19 22 -19 15 4 -10 29 -4 28 34 -8 18 -16 37 -30 44
-30 6 0 2 7 -8 15 -26 20 -12 31 19 17 38 -18 39 -15 10 19 -27 33 -27 52 0
29 20 -17 32 -5 15 15 -20 24 -3 31 21 9 21 -19 22 -19 15 4 -9 26 1 28 27 5
18 -17 19 -17 16 2 -3 12 2 20 11 20 16 0 25 43 16 80 -6 24 -34 27 -60 6 -8
-7 -21 -11 -28 -9 -7 3 -18 -2 -24 -11 -10 -13 -14 -13 -28 -2 -13 11 -17 9
-27 -15 -6 -16 -8 -51 -5 -77 5 -48 5 -49 -16 -35 -12 8 -26 30 -31 48 -11 41
-19 31 -47 -58 -16 -50 -17 -67 -8 -82 14 -22 8 -33 -15 -25 -23 10 -28 63
-12 138 18 85 50 155 120 267 30 48 70 121 89 163 20 42 39 77 44 77 5 0 12
-32 16 -71z m-6639 17 c39 -17 43 -27 19 -51 -15 -14 -54 -14 -101 0 -22 7
-15 45 10 55 30 12 33 12 72 -4z m-460 -40 c54 -60 102 -65 158 -16 l34 29 45
-28 c24 -15 58 -45 75 -66 l31 -37 47 21 c26 12 51 21 55 21 10 0 -3 -50 -33
-123 -18 -44 -26 -54 -35 -45 -9 9 -12 4 -12 -23 0 -19 -7 -44 -15 -55 -14
-18 -14 -17 -16 16 l-1 35 -8 -38 c-10 -52 -23 -63 -54 -49 -29 13 -60 56 -54
74 3 8 13 3 30 -15 25 -27 27 -27 33 -7 4 11 -2 43 -14 73 -11 30 -26 86 -35
126 -8 40 -17 76 -21 79 -3 4 -14 -3 -23 -15 -24 -29 -75 -53 -115 -53 -45 0
-81 30 -112 91 -32 63 -14 65 40 5z m7695 -136 c7 -14 29 -45 49 -70 20 -25
49 -79 65 -120 16 -41 42 -90 57 -108 31 -35 52 -73 64 -112 6 -22 2 -21 -36
16 -24 22 -58 50 -75 62 -23 16 -41 45 -69 114 -21 51 -53 120 -71 154 -36 65
-42 109 -22 165 l13 34 6 -55 c3 -31 12 -67 19 -80z m578 78 c4 -37 -43 -52
-117 -38 -61 11 -76 19 -76 40 0 22 30 29 115 27 73 -2 75 -3 78 -29z m108
-23 c13 -31 24 -62 24 -69 0 -24 42 -67 82 -83 46 -18 45 -39 -3 -35 -50 4
-81 32 -107 95 -23 58 -40 147 -28 147 4 0 18 -25 32 -55z m181 -21 c88 -11
90 -11 220 -97 72 -47 133 -93 137 -102 3 -9 6 -54 6 -100 l0 -84 -42 -11
c-24 -6 -63 -18 -87 -25 -88 -29 -78 -6 15 36 35 15 64 34 63 41 0 10 -2 10
-6 0 -8 -21 -23 -3 -23 29 0 37 -20 39 -21 2 l-1 -28 -13 30 c-8 17 -14 24
-15 18 0 -26 -21 -12 -27 18 -7 35 -22 21 -23 -21 -1 -19 -6 -13 -20 24 -25
65 -52 91 -128 128 -89 42 -142 97 -142 146 0 27 3 33 10 22 6 -10 40 -19 97
-26z m-1092 -93 c84 -58 92 -68 181 -196 38 -55 84 -117 102 -137 35 -39 36
-60 2 -51 -29 8 -64 46 -156 175 -48 66 -114 143 -152 177 -37 33 -76 74 -86
92 l-20 33 30 -22 c16 -13 61 -44 99 -71z m-4676 52 c-36 -49 -70 -77 -146
-125 -46 -29 -83 -56 -83 -60 0 -4 21 2 46 12 51 22 64 24 64 10 0 -24 -336
-160 -396 -160 -14 0 -42 -9 -64 -20 -53 -27 -69 -25 -113 11 -50 41 -37 56
28 35 26 -9 55 -14 64 -11 9 3 28 27 43 55 32 58 64 77 151 89 35 5 86 20 113
34 27 14 85 37 128 53 44 15 100 42 125 60 54 38 58 40 40 17z m5248 -15 c27
-30 46 -68 35 -68 -5 0 -15 7 -22 15 -21 25 -40 18 -40 -15 0 -30 23 -81 56
-127 23 -33 1 -29 -39 7 -49 42 -70 125 -47 184 12 32 30 33 57 4z m-754 -57
c21 -92 50 -151 104 -211 52 -58 46 -63 -19 -15 -50 37 -98 100 -116 154 -13
37 -16 124 -5 134 15 15 22 4 36 -62z m926 34 c20 -19 6 -45 -25 -45 -18 0
-25 4 -21 14 3 8 -1 20 -8 26 -8 7 -12 16 -9 22 7 11 44 1 63 -17z m144 -65
c39 -31 148 -77 213 -90 82 -17 104 -32 104 -75 0 -43 -10 -44 -39 -4 -21 28
-27 31 -60 25 -27 -4 -46 0 -71 15 l-35 21 19 -21 c26 -29 14 -37 -33 -21 -32
10 -49 10 -105 -4 -75 -19 -87 -16 -135 39 -36 42 -38 58 -11 85 29 29 58 25
78 -10 10 -18 25 -30 38 -30 32 0 35 9 13 51 -22 43 -14 49 24 19z m-8603
-102 c0 -9 27 -49 60 -90 33 -40 60 -76 60 -80 0 -32 -106 60 -126 109 -16 38
-19 117 -4 93 5 -8 10 -22 10 -32z m9569 -62 c11 -24 11 -30 -2 -43 -32 -32
-69 9 -48 53 14 31 31 27 50 -10z m-1988 -216 c104 -32 185 -109 241 -228 33
-68 53 -199 27 -174 -7 6 -26 12 -43 12 -28 0 -29 0 -11 -20 24 -27 8 -25 -68
5 l-62 25 40 -36 c37 -33 38 -35 14 -30 -19 4 -29 1 -33 -10 -5 -14 -16 -15
-59 -10 l-52 6 45 -25 45 -24 -33 -1 c-43 0 -163 40 -254 86 -88 44 -156 112
-221 220 -26 43 -53 88 -60 99 -7 11 -25 37 -41 58 l-29 38 74 -6 c53 -4 104
0 179 14 138 26 222 26 301 1z m1479 -27 c3 -2 -7 -14 -23 -25 -21 -15 -27
-28 -27 -57 0 -44 -14 -61 -51 -61 -72 0 -77 34 -17 110 39 49 43 51 77 45 20
-4 38 -9 41 -12z m-955 -93 c44 -11 100 -31 125 -43 39 -19 47 -30 67 -81 12
-32 30 -67 39 -77 22 -24 10 -39 -31 -39 -42 0 -82 44 -91 100 -6 37 -7 38
-58 44 -62 7 -117 43 -162 108 l-33 47 32 -19 c17 -10 68 -28 112 -40z m1039
-171 c-46 -48 -119 -77 -209 -85 -66 -5 -97 -14 -180 -52 -77 -35 -115 -47
-163 -50 -72 -5 -106 11 -47 22 20 4 39 14 42 22 3 8 30 31 60 50 29 19 56 41
59 49 5 12 32 15 148 15 l141 0 85 38 c47 21 87 34 89 29 2 -5 -10 -22 -25
-38z m111 -199 c-5 -15 -2 -20 12 -20 14 -1 13 -4 -7 -15 l-25 -14 24 -1 c20
0 21 -2 11 -15 -14 -16 -1 -20 50 -16 l25 3 -24 -26 c-32 -34 -20 -33 34 4 24
17 48 30 53 30 5 0 15 11 22 25 16 29 30 33 30 8 -1 -60 -82 -168 -155 -205
-107 -56 -304 -101 -348 -81 -30 14 -40 70 -27 150 11 66 28 101 60 124 29 21
189 67 238 68 29 1 33 -2 27 -19z m-3740 -80 c31 -19 65 -60 65 -77 0 -5 -44
-14 -97 -21 -54 -7 -110 -15 -125 -18 -23 -5 -28 -3 -28 12 0 30 37 82 72 104
42 25 72 25 113 0z m259 6 c23 -9 37 -24 45 -46 21 -63 20 -64 -75 -56 -48 3
-90 9 -95 11 -13 9 11 64 38 85 30 24 43 25 87 6z m308 -57 c18 -24 37 -109
25 -109 -13 0 -167 39 -176 44 -14 9 -3 36 28 69 34 37 94 35 123 -4z m1445
10 c81 -30 101 -89 79 -231 -9 -54 -16 -125 -16 -158 0 -32 -4 -61 -9 -64 -18
-11 -231 235 -287 330 -36 62 -24 65 22 7 49 -62 62 -75 41 -41 -30 49 -18 43
49 -22 74 -72 74 -70 3 32 -27 39 -47 74 -44 77 3 3 26 -17 51 -45 28 -30 38
-37 25 -18 -11 17 -27 37 -36 44 -8 7 -15 16 -15 21 0 19 23 7 65 -36 25 -24
45 -41 45 -37 0 18 -80 97 -108 106 -61 21 -31 43 60 45 26 1 59 -4 75 -10z
m-2310 -39 c33 -20 62 -62 47 -67 -8 -3 -107 -67 -149 -98 -20 -14 -25 -5 -31
66 -6 60 -5 66 21 92 33 32 67 35 112 7z m1138 -64 c26 -26 41 -82 31 -122
l-7 -25 -67 37 c-111 61 -122 77 -76 113 37 29 89 27 119 -3z m1757 -11 c9
-44 -10 -114 -44 -161 -18 -25 -42 -60 -52 -76 l-19 -30 24 -18 c20 -16 148
-60 173 -60 4 0 -8 18 -28 40 -20 22 -36 47 -36 56 0 17 5 15 69 -33 51 -40
101 -67 101 -56 0 5 -19 20 -43 35 -47 30 -101 84 -110 111 -9 23 5 22 39 -5
29 -23 27 -19 -13 41 -25 36 -32 64 -11 43 21 -21 29 -13 14 16 -26 51 -45
103 -36 97 6 -3 37 -41 69 -84 67 -88 107 -124 160 -148 40 -17 154 -22 219
-10 37 8 42 7 42 -10 0 -34 -59 -112 -107 -143 -53 -34 -95 -47 -180 -58 l-58
-7 38 -23 c42 -24 41 -46 -1 -36 -15 4 -88 34 -162 67 l-135 62 -175 5 c-96 4
-183 10 -192 14 -34 16 -17 25 34 19 35 -4 49 -3 44 5 -4 6 13 14 46 20 39 7
45 10 22 11 -50 2 -94 13 -88 22 2 5 -7 11 -21 15 -46 11 -15 24 63 25 42 0
95 4 117 9 l40 9 -45 -4 c-58 -5 -160 5 -160 16 0 5 21 9 48 9 57 0 122 10
122 19 0 3 -34 6 -75 6 -45 1 -80 6 -87 13 -9 9 -4 12 24 12 65 0 78 15 18 20
-56 5 -75 22 -32 28 22 3 22 5 6 16 -15 11 -11 14 32 26 33 9 42 15 29 17 -59
13 -95 25 -95 32 0 4 51 11 113 15 61 4 139 13 172 20 99 22 122 20 127 -9z
m-1548 -140 c23 -21 26 -32 26 -90 0 -39 -4 -65 -11 -65 -17 0 -118 101 -114
113 22 62 26 67 48 67 13 0 36 -11 51 -25z m2106 -13 c0 -11 86 -52 108 -52
10 0 23 -5 30 -12 9 -9 12 -9 12 0 0 17 110 4 133 -16 9 -8 17 -24 17 -35 0
-19 -4 -20 -131 -13 -73 3 -143 12 -157 19 -29 14 -47 57 -38 92 6 23 26 36
26 17z m-3620 -36 c0 -2 -6 -19 -14 -37 -7 -19 -16 -43 -20 -54 -6 -16 -9 -17
-16 -5 -15 23 -12 62 7 82 14 16 43 25 43 14z m1670 -151 c36 -18 60 -62 60
-107 0 -46 -20 -112 -30 -102 -13 14 -110 176 -110 185 0 7 39 39 48 39 2 0
16 -7 32 -15z m-1728 -130 c-4 -52 -16 -63 -42 -40 -24 22 -25 42 -3 67 28 31
48 18 45 -27z m1838 -194 c0 -72 -13 -85 -29 -29 -10 33 -10 46 0 65 20 38 29
27 29 -36z m-1820 -1 c6 -22 20 -61 30 -85 l19 -45 -25 0 c-28 0 -65 17 -76
34 -20 29 5 136 32 136 5 0 14 -18 20 -40z m485 -30 c1 -50 6 -66 32 -104 l32
-45 -40 14 c-64 23 -131 28 -195 15 -67 -14 -112 -35 -54 -25 161 26 215 18
365 -55 171 -84 168 -112 -5 -41 -146 61 -195 71 -286 59 -66 -9 -137 2 -120
19 3 3 1 12 -6 20 -26 32 190 203 256 203 19 0 21 -6 21 -60z m95 21 c0 -5 -7
-14 -15 -21 -12 -10 -19 -10 -28 -1 -9 9 -9 14 3 21 19 12 40 13 40 1z m276
-32 c3 -6 2 -15 -2 -19 -12 -12 -38 5 -30 19 9 14 23 14 32 0z m171 -85 c113
-60 213 -125 213 -138 0 -7 -6 -18 -12 -25 -10 -11 -10 -14 0 -18 6 -3 12 -11
12 -18 0 -36 -180 -77 -261 -59 l-44 10 85 9 85 9 -103 7 c-121 9 -191 28
-251 68 l-44 30 39 6 c102 17 168 63 181 126 3 16 12 29 19 29 7 0 44 -16 81
-36z m-179 -17 c2 -9 -4 -20 -13 -23 -20 -8 -50 19 -40 36 10 17 49 8 53 -13z
m-712 -119 c40 -43 74 -89 74 -99 0 -16 -80 -9 -107 8 -27 18 -53 68 -53 103
0 33 50 26 86 -12z m1731 -66 c3 -23 2 -49 -2 -59 -6 -14 -10 -9 -16 22 -4 22
-8 53 -8 70 -1 43 19 17 26 -33z m68 -168 c-28 -92 -35 -100 -35 -44 0 31 8
55 26 82 15 21 28 38 30 38 1 0 -8 -34 -21 -76z m-1568 10 c36 -26 81 -61 100
-77 31 -28 33 -32 17 -38 -30 -12 -121 -10 -149 3 -15 7 -33 24 -41 39 -21 41
-18 119 4 119 2 0 34 -21 69 -46z m329 -211 c57 -31 104 -59 104 -63 0 -14
-53 -30 -100 -30 -40 0 -55 5 -83 30 -44 38 -64 84 -47 105 7 8 15 15 17 15 3
0 52 -26 109 -57z m-3461 -8 c52 -76 188 -203 280 -261 73 -46 94 -77 61 -90
-16 -6 -287 198 -345 261 -37 40 -41 50 -41 95 0 27 2 50 3 50 2 0 21 -25 42
-55z m3790 -141 c52 -20 95 -40 95 -45 0 -4 -16 -13 -35 -19 -44 -15 -93 0
-141 42 -33 29 -45 58 -24 58 6 0 53 -16 105 -36z m400 -100 l70 -6 -24 -19
c-30 -24 -72 -24 -121 1 -49 25 -60 41 -23 35 15 -2 59 -7 98 -11z m-3705
-451 c0 -24 -25 -9 -28 17 -3 21 -2 22 12 11 9 -7 16 -20 16 -28z m1536 -4
c71 -23 99 -48 89 -78 -8 -27 -13 -26 -88 5 -41 17 -88 28 -139 31 l-76 5 10
29 c5 15 17 30 26 33 29 8 114 -4 178 -25z m-246 2 c0 -32 -80 -85 -242 -159
-16 -7 -7 46 10 60 21 19 88 54 162 84 63 26 70 27 70 15z m-1254 -77 c4 -24
0 -60 -15 -109 -26 -92 -28 -128 -3 -123 12 2 19 17 23 53 7 60 18 95 28 95 4
0 18 -18 30 -41 20 -35 22 -49 16 -97 -4 -31 -11 -62 -16 -68 -15 -18 1 -45
24 -42 19 3 21 9 19 49 -4 59 10 69 37 25 21 -33 26 -80 15 -123 -6 -20 -11
-22 -45 -17 -95 15 -156 -64 -114 -146 26 -49 67 -64 85 -29 9 16 8 26 -5 45
-21 32 -12 56 17 52 15 -2 27 -15 37 -41 12 -34 12 -42 -2 -71 -17 -36 -68
-66 -114 -66 -43 0 -117 52 -147 102 -35 61 -40 109 -22 216 16 91 22 108 71
202 13 25 26 65 30 89 14 94 38 115 51 45z m1912 13 c6 -6 13 -24 17 -40 8
-32 -2 -34 -48 -11 -26 14 -49 16 -134 10 l-103 -7 0 24 c0 13 3 27 7 30 13
13 250 8 261 -6z m-417 -43 c77 -33 89 -41 85 -59 -2 -11 -8 -46 -11 -77 -4
-33 -12 -58 -19 -58 -6 0 -48 31 -94 69 -46 38 -104 79 -130 92 -26 13 -49 25
-50 26 -2 1 -1 11 3 22 13 43 94 37 216 -15z m-281 -4 c0 -12 -48 -32 -64 -27
-6 2 3 11 19 20 35 19 45 21 45 7z m827 -32 c108 -114 155 -193 124 -212 -13
-8 -149 138 -166 178 -16 38 -20 76 -7 76 4 0 26 -19 49 -42z m-299 -10 c16
-16 15 -33 -4 -75 -17 -34 -76 -83 -102 -83 -11 0 -12 13 -7 63 11 96 18 107
63 107 21 0 43 -5 50 -12z m-840 -101 c-57 -50 -87 -71 -94 -64 -13 13 11 50
69 108 l62 61 3 -33 c3 -29 -2 -39 -40 -72z m919 -11 c-9 -54 -34 -83 -100
-116 -78 -39 -97 -39 -97 0 0 26 7 32 53 54 29 14 68 41 87 61 45 46 64 46 57
1z m-1050 -92 c3 -9 -2 -31 -11 -50 -9 -19 -16 -46 -16 -59 0 -13 -4 -26 -8
-29 -11 -6 -72 30 -72 43 0 14 79 111 91 111 5 0 12 -7 16 -16z m2622 -21
c-12 -21 -28 -45 -36 -53 -11 -12 -13 -12 -13 3 0 15 55 87 67 87 2 0 -5 -17
-18 -37z m-1839 -9 l0 -36 -57 7 c-42 5 -64 13 -80 30 -28 29 -20 33 70 34
l67 1 0 -36z m-274 0 c19 -15 34 -30 34 -35 0 -16 -129 -10 -162 7 -37 19 -28
30 37 42 28 5 51 10 53 11 2 0 19 -11 38 -25z m1019 -66 c43 -57 58 -109 37
-122 -9 -6 -93 103 -113 146 -6 15 -9 34 -5 43 8 23 23 11 81 -67z m-1240 12
c17 -18 17 -20 1 -26 -18 -7 -66 13 -66 27 0 6 14 13 41 18 3 0 14 -8 24 -19z
m2276 -96 c-1 -44 4 -94 15 -130 17 -59 16 -195 -2 -283 -10 -49 -97 -135
-151 -152 -124 -36 -224 82 -143 169 17 18 25 20 40 12 25 -14 25 -24 -2 -61
-20 -27 -21 -31 -6 -46 25 -24 76 0 95 45 28 68 -6 131 -77 147 -33 7 -35 18
-21 93 8 41 61 112 84 112 9 0 6 -40 -9 -103 -6 -26 -4 -28 17 -25 23 3 24 7
29 95 4 78 8 96 27 114 l22 22 6 -26 c4 -15 5 -37 2 -50 -8 -29 6 -50 29 -45
20 4 21 10 8 105 -8 61 -1 86 23 81 14 -2 16 -14 14 -74z m-2366 35 c171 6
228 1 465 -43 135 -24 295 -52 356 -61 61 -9 128 -25 150 -36 l39 -19 -39 6
c-47 7 -330 32 -431 38 -38 2 -113 15 -165 27 -72 18 -125 23 -220 24 -114 0
-128 -2 -163 -24 -56 -34 -71 -62 -58 -104 11 -32 -1 -97 -17 -97 -4 0 -18 16
-31 35 -28 41 -31 119 -6 169 18 34 18 39 5 31 -5 -3 -10 0 -10 9 0 8 -3 21
-6 29 -6 18 21 28 51 19 11 -3 47 -5 80 -3z m1464 -137 c17 -29 31 -62 31 -74
0 -11 -20 -41 -45 -66 -43 -42 -47 -44 -90 -40 -25 3 -57 13 -72 23 -26 17
-26 18 -7 32 11 8 30 12 47 9 15 -3 40 -9 55 -12 19 -4 35 0 52 14 l23 19 -21
35 c-21 34 -30 97 -15 111 8 9 5 12 42 -51z m-316 -19 c67 -46 72 -64 13 -49
-29 7 -108 75 -100 87 8 14 12 12 87 -38z m919 -144 c-5 -34 -18 -58 -45 -89
-42 -46 -53 -48 -37 -6 5 15 10 39 10 53 0 23 64 102 75 92 2 -3 1 -25 -3 -50z
m-1977 -12 c67 -35 81 -46 83 -69 2 -16 1 -28 -2 -28 -13 0 -170 61 -181 70
-10 9 -11 18 -3 41 5 16 13 29 16 29 4 -1 43 -20 87 -43z m287 -97 c67 -16
130 -30 140 -30 11 0 18 -8 18 -20 0 -17 -7 -20 -40 -20 -45 0 -212 35 -241
51 -19 10 -27 49 -10 49 6 0 65 -13 133 -30z m356 -50 c18 0 23 -3 16 -10 -14
-14 -154 -26 -154 -13 0 23 26 35 69 29 24 -3 55 -6 69 -6z"/>
<path d="M3674 10985 c11 -8 27 -15 35 -15 10 1 7 6 -9 15 -33 19 -50 18 -26
0z"/>
<path d="M395 10385 c-16 -8 -43 -27 -60 -40 -25 -22 -23 -21 19 5 28 16 56
30 62 30 7 0 16 5 19 10 9 14 -5 12 -40 -5z"/>
<path d="M470 10330 l-25 -8 25 0 c14 0 34 3 45 8 l20 9 -20 -1 c-11 0 -31 -4
-45 -8z"/>
<path d="M7317 9746 c-4 -10 -5 -21 -2 -24 9 -9 17 6 13 25 -3 17 -4 17 -11
-1z"/>
<path d="M4145 9716 c-35 -46 -70 -138 -84 -220 -7 -37 -10 -70 -8 -72 2 -2
16 26 30 63 15 38 45 91 67 118 89 112 101 145 51 145 -22 0 -37 -9 -56 -34z"/>
<path d="M3911 9641 c-29 -29 -28 -108 3 -182 29 -72 65 -124 78 -111 16 16
14 243 -3 277 -17 37 -51 43 -78 16z"/>
<path d="M6060 9498 c0 -13 14 -52 31 -88 36 -76 59 -159 59 -212 0 -21 5 -38
10 -38 14 0 13 195 -1 259 -13 62 -42 101 -75 101 -18 0 -24 -5 -24 -22z"/>
<path d="M6272 9345 c-33 -42 -87 -275 -64 -275 19 0 111 110 136 164 30 64
31 68 11 106 -20 38 -56 40 -83 5z"/>
<path d="M6454 9120 c-59 -11 -194 -57 -209 -72 -7 -7 0 -8 20 -2 17 5 100 9
185 9 150 0 155 1 158 21 2 11 -3 26 -11 32 -19 16 -85 22 -143 12z"/>
<path d="M8228 9457 c-51 -69 -54 -86 -7 -41 29 27 65 91 56 100 -2 2 -24 -24
-49 -59z"/>
<path d="M5012 9367 c-26 -27 -32 -41 -32 -76 0 -79 38 -120 112 -121 69 0
109 37 116 108 4 49 2 54 -31 87 -30 30 -41 35 -84 35 -42 0 -53 -5 -81 -33z"/>
<path d="M5022 9057 c-45 -48 -11 -127 55 -127 32 0 73 42 73 75 0 35 -42 75
-78 75 -17 0 -37 -9 -50 -23z"/>
<path d="M5039 8814 c-16 -20 0 -49 27 -49 35 0 28 64 -7 65 -4 0 -12 -7 -20
-16z"/>
<path d="M4973 8613 c-36 -7 -81 -67 -89 -118 -9 -64 0 -121 40 -250 19 -60
39 -126 43 -145 l9 -35 18 35 c10 19 42 73 72 120 122 194 105 373 -36 392
-19 3 -45 3 -57 1z"/>
<path d="M3443 8541 c-23 -11 -49 -31 -58 -45 -20 -30 -37 -33 -56 -9 -39 47
-169 69 -228 38 -61 -31 -101 -105 -101 -186 l0 -35 -69 0 c-61 1 -74 -2 -113
-29 -64 -45 -81 -84 -74 -175 l6 -75 -51 -30 c-69 -41 -89 -76 -89 -157 0 -64
-1 -66 -30 -78 -66 -27 -92 -96 -67 -179 l15 -51 -28 -20 c-33 -24 -60 -77
-60 -119 0 -32 31 -104 50 -116 16 -10 12 -32 -15 -71 -29 -43 -33 -109 -11
-153 16 -30 80 -91 97 -91 6 0 7 -24 4 -62 -6 -54 -3 -70 17 -108 53 -104 183
-136 296 -74 l44 24 32 -35 c90 -96 252 -100 370 -9 43 33 49 35 65 20 57 -52
195 -65 275 -27 42 21 82 59 104 98 8 13 13 13 43 -2 24 -13 58 -18 115 -19
74 0 85 3 118 27 19 15 45 50 58 77 l23 50 85 0 c78 0 90 3 133 30 47 30 87
81 87 111 0 13 15 17 66 22 67 7 113 27 150 68 15 16 19 36 19 90 1 60 4 71
23 85 49 34 66 112 37 168 -14 27 -14 34 0 68 21 52 19 126 -3 163 -10 17 -35
39 -54 49 l-35 19 19 45 c48 109 -15 213 -144 237 -34 6 -36 10 -43 53 -15
102 -85 171 -194 192 -43 8 -60 6 -103 -10 -29 -11 -53 -19 -54 -17 -1 1 -12
26 -24 55 -29 66 -86 117 -150 132 -54 13 -96 7 -152 -21 l-38 -19 -37 41
c-21 23 -56 50 -78 60 -53 24 -138 24 -192 0z m147 -76 c59 -31 106 -125 63
-125 -71 0 -236 25 -240 37 -7 19 23 61 60 83 38 24 78 25 117 5z m-324 -49
c19 -19 34 -40 34 -48 0 -9 -23 -22 -57 -32 -32 -10 -75 -27 -96 -38 -51 -26
-67 -18 -67 31 0 85 30 121 102 121 44 0 54 -4 84 -34z m691 -15 c25 -12 48
-32 57 -50 16 -29 22 -121 9 -121 -17 0 -223 73 -239 85 -16 11 -16 17 -6 39
15 33 68 66 107 66 17 0 49 -9 72 -19z m360 -171 c64 -38 88 -114 59 -184
l-16 -38 -62 49 c-35 28 -91 69 -125 92 -36 24 -60 47 -57 54 17 46 142 63
201 27z m-1341 -20 l27 -11 -50 -52 c-27 -29 -61 -67 -76 -85 -25 -31 -27 -31
-37 -13 -13 26 -13 94 1 125 19 42 78 57 135 36z m1585 -239 c40 -41 39 -81
-4 -128 -21 -23 -40 -34 -49 -31 -22 9 -99 128 -91 142 32 56 96 64 144 17z
m-1791 -49 c0 -14 -71 -122 -81 -122 -5 0 -9 14 -9 31 0 22 10 41 34 65 32 32
56 43 56 26z m1849 -207 c31 -16 41 -33 41 -72 0 -33 -53 -85 -82 -81 -20 3
-24 11 -29 55 -4 29 -10 60 -13 69 -15 39 33 56 83 29z m-2013 -92 c-12 -24
-15 -26 -21 -10 -4 10 0 28 11 45 15 22 19 24 22 10 2 -9 -3 -29 -12 -45z
m2049 -183 c10 -16 -23 -60 -45 -60 -21 0 -63 47 -54 61 7 13 91 11 99 -1z
m-2105 -45 c0 -25 -4 -45 -10 -45 -11 0 -14 73 -3 83 11 12 13 8 13 -38z
m1398 6 c59 -30 135 -104 166 -161 15 -28 26 -54 23 -56 -3 -3 -33 6 -68 20
-52 22 -78 26 -161 26 l-100 0 31 30 c31 31 51 83 51 133 0 32 8 33 58 8z
m-398 -6 c0 -8 -9 -15 -20 -15 -20 0 -26 11 -13 23 12 13 33 7 33 -8z m270 5
c0 -5 7 -10 15 -10 20 0 19 -16 -2 -24 -19 -8 -48 17 -39 33 9 14 26 14 26 1z
m-381 -77 c16 -62 65 -108 138 -129 65 -19 61 -24 -41 -55 -58 -19 -83 -21
-165 -15 -53 3 -109 8 -126 12 -23 4 -26 3 -14 -5 8 -6 47 -15 84 -21 94 -15
97 -24 5 -17 -93 7 -172 32 -208 66 -26 25 -26 26 -6 29 21 3 21 5 7 32 -15
32 -11 50 12 50 8 0 53 16 100 35 194 81 199 81 214 18z m101 -13 c0 -11 -7
-20 -15 -20 -17 0 -18 2 -9 24 9 23 24 20 24 -4z m1014 -30 c31 -47 32 -61 7
-84 -23 -20 -115 -33 -125 -17 -5 8 80 141 90 141 1 0 13 -18 28 -40z m-504
-84 c41 -13 76 -29 78 -35 7 -20 -46 -22 -114 -5 -91 24 -168 21 -291 -10 -56
-14 -109 -26 -119 -26 -34 0 7 28 79 55 139 50 254 57 367 21z m-1480 -53 c0
-9 12 -36 26 -60 l26 -44 -32 16 c-34 18 -49 46 -42 82 5 26 22 32 22 6z
m1758 -63 c-13 -38 -75 -73 -121 -68 -31 3 -30 4 43 50 41 26 78 48 82 48 4 0
2 -14 -4 -30z m-1569 -149 c24 -16 61 -37 82 -47 22 -9 39 -20 39 -23 -1 -12
-85 -70 -111 -76 -34 -8 -94 17 -109 45 -27 51 -3 130 39 130 9 0 36 -13 60
-29z m1251 -25 c-27 -51 -102 -70 -165 -42 -34 16 -38 13 85 55 47 15 87 24
89 19 2 -6 -2 -20 -9 -32z m-342 -78 c-8 -23 -90 -58 -135 -58 -44 0 -111 26
-98 38 7 7 145 28 203 30 22 1 32 -2 30 -10z m-505 -15 c59 -3 107 -9 107 -13
0 -26 -95 -80 -140 -80 -41 0 -104 33 -129 68 -24 35 -17 46 24 37 16 -3 78
-8 138 -12z"/>
<path d="M4710 8391 c-14 -36 -16 -136 -2 -171 6 -14 47 -65 92 -115 45 -49
98 -111 117 -137 19 -27 36 -48 37 -48 1 0 34 25 72 55 38 31 93 70 123 87
121 70 161 128 161 233 0 37 -4 65 -10 65 -5 0 -10 -4 -10 -8 0 -5 -14 -29
-31 -55 -20 -31 -57 -64 -114 -101 -89 -58 -130 -107 -163 -192 l-19 -48 -11
61 c-14 82 -40 129 -117 215 -45 50 -72 90 -87 130 -11 32 -22 58 -23 58 -1 0
-8 -13 -15 -29z"/>
<path d="M4813 7153 c-71 -126 -146 -227 -247 -333 -80 -83 -116 -133 -167
-230 -35 -68 -109 -148 -182 -199 -57 -39 -107 -139 -115 -228 -6 -72 2 -87
63 -114 49 -23 109 -24 212 -4 148 28 181 20 265 -63 l58 -56 22 21 c44 40
104 63 167 63 50 0 77 -8 170 -50 134 -60 178 -65 221 -22 74 74 64 189 -34
391 -36 75 -79 174 -96 220 -16 47 -47 114 -69 150 -96 164 -171 352 -194 490
l-13 74 -61 -110z"/>
<path d="M4285 6750 c-94 -52 -258 -106 -399 -130 -120 -20 -161 -37 -172 -72
-10 -32 12 -43 82 -41 112 5 289 77 442 182 74 51 137 103 121 100 -2 0 -35
-18 -74 -39z"/>
<path d="M5260 6670 c52 -100 174 -247 279 -337 89 -76 156 -113 206 -113 31
0 35 3 35 26 0 35 -39 71 -141 127 -117 66 -244 163 -324 249 -38 40 -62 62
-55 48z"/>
<path d="M4148 6564 c-32 -25 -99 -66 -150 -92 -70 -35 -93 -52 -93 -67 0 -12
10 -23 26 -29 23 -8 37 -2 97 38 60 40 142 125 176 184 11 19 5 15 -56 -34z"/>
<path d="M5345 6430 c8 -45 69 -175 101 -218 38 -49 68 -66 93 -52 12 6 21 15
21 20 0 6 -32 45 -72 88 -39 42 -89 104 -110 137 -37 56 -39 58 -33 25z"/>
<path d="M9275 9490 c9 -16 18 -30 21 -30 2 0 -2 14 -11 30 -9 17 -18 30 -21
30 -2 0 2 -13 11 -30z"/>
<path d="M9453 7962 c-41 -17 -65 -33 -47 -31 14 1 110 47 99 48 -5 0 -29 -8
-52 -17z"/>
<path d="M9566 7925 c-46 -36 -61 -54 -28 -36 23 13 89 70 81 71 -3 0 -27 -16
-53 -35z"/>
<path d="M3965 11685 c-49 -12 -84 -23 -76 -24 17 -1 191 39 191 45 0 7 -21 3
-115 -21z"/>
<path d="M8305 10495 c22 -20 49 -41 60 -46 11 -6 2 6 -20 26 -22 20 -49 41
-60 46 -11 6 -2 -6 20 -26z"/>
<path d="M5495 3571 c-38 -21 -96 -54 -127 -74 -176 -113 -336 -172 -519 -191
-72 -8 -133 -17 -137 -21 -25 -24 128 -34 246 -15 180 30 472 171 594 288 33
31 41 52 20 52 -4 0 -38 -18 -77 -39z"/>
<path d="M5602 3503 c-84 -84 -304 -216 -497 -298 -66 -28 -23 -28 62 0 189
63 434 208 497 294 70 95 33 98 -62 4z"/>
<path d="M3605 3493 c11 -47 54 -104 159 -209 139 -139 285 -229 317 -197 7 7
-42 51 -159 142 -156 121 -302 257 -302 281 0 6 -5 10 -11 10 -7 0 -9 -10 -4
-27z"/>
<path d="M3710 3489 c30 -55 162 -159 203 -159 31 0 16 31 -30 65 -24 16 -68
49 -100 73 -63 47 -91 55 -73 21z"/>
<path d="M5648 3383 c-67 -57 -200 -141 -282 -178 -91 -41 -108 -61 -45 -51
24 3 98 33 164 65 96 47 131 70 173 114 48 51 66 87 43 87 -5 0 -29 -16 -53
-37z"/>
<path d="M3660 3266 c0 -27 98 -161 162 -222 71 -68 164 -122 181 -105 14 14
-9 39 -103 111 -77 59 -172 154 -204 203 -20 29 -36 35 -36 13z"/>
<path d="M5584 3200 c-127 -90 -171 -126 -162 -135 24 -25 288 150 288 191 0
26 -26 14 -126 -56z"/>
<path d="M3670 3109 c0 -36 70 -141 149 -222 73 -76 105 -97 151 -97 51 0 44
10 -79 105 -29 22 -84 78 -124 125 -105 125 -97 118 -97 89z"/>
<path d="M5573 2998 c-23 -25 -30 -48 -15 -48 16 0 44 38 40 55 -2 14 -6 13
-25 -7z"/>
<path d="M5479 2931 c-19 -15 -21 -22 -12 -32 9 -9 18 -6 42 10 17 13 31 27
31 32 0 16 -37 10 -61 -10z"/>
<path d="M5537 2832 c-40 -41 -45 -52 -23 -52 18 0 78 68 71 81 -8 12 -7 14
-48 -29z"/>
<path d="M3808 2795 c-8 -8 47 -99 99 -162 39 -49 63 -55 63 -18 0 18 -22 49
-78 106 -42 44 -80 77 -84 74z"/>
<path d="M5548 2678 c-24 -36 -81 -188 -74 -195 17 -18 92 110 110 190 8 34
-15 37 -36 5z"/>
<path d="M6201 2477 c-34 -187 -57 -274 -107 -409 -16 -42 -25 -80 -21 -84 11
-12 56 36 89 93 25 44 33 52 52 47 20 -5 25 2 50 78 30 92 45 211 28 222 -7 4
-17 -15 -27 -51 -9 -32 -22 -74 -28 -93 -17 -52 -21 -13 -7 73 16 107 25 293
13 300 -6 4 -23 -68 -42 -176z"/>
<path d="M3836 2612 c-3 -5 3 -24 13 -43 21 -38 51 -51 51 -22 0 22 -55 79
-64 65z"/>
<path d="M5583 2478 c-11 -18 -32 -55 -48 -83 -15 -27 -59 -101 -98 -163 -38
-62 -67 -115 -64 -119 12 -11 57 28 107 95 55 71 138 231 143 271 3 36 -18 36
-40 -1z"/>
<path d="M6331 2304 c-37 -47 -38 -132 -1 -109 29 18 55 135 31 135 -5 0 -19
-12 -30 -26z"/>
<path d="M3810 1964 c0 -37 47 -120 76 -133 33 -14 34 -14 34 7 0 20 -89 151
-102 152 -5 0 -8 -12 -8 -26z"/>
<path d="M3807 1863 c-21 -21 10 -113 38 -113 21 0 19 34 -5 80 -22 42 -23 44
-33 33z"/>
<path d="M5248 1561 c-67 -65 -78 -89 -49 -99 14 -5 161 139 161 157 0 30 -47
5 -112 -58z"/>
<path d="M6941 1539 c-78 -15 -67 -26 31 -32 133 -7 470 -54 558 -78 145 -38
231 -78 403 -185 64 -41 122 -74 127 -74 18 0 10 28 -16 60 -39 45 -133 106
-248 160 -178 83 -280 108 -556 135 -236 22 -252 23 -299 14z"/>
<path d="M5140 1384 c-43 -39 -58 -70 -41 -87 8 -8 25 3 61 42 28 29 50 60 50
67 0 24 -29 15 -70 -22z"/>
<path d="M7326 1402 c-6 -10 79 -51 164 -77 30 -9 133 -55 228 -102 96 -46
176 -82 179 -79 21 21 -90 101 -230 166 -114 52 -330 110 -341 92z"/>
<path d="M4020 1288 c0 -127 43 -234 137 -338 67 -74 112 -107 122 -91 4 6 15
9 23 6 39 -15 24 22 -44 113 -77 102 -148 212 -148 230 0 6 -5 14 -11 18 -17
10 -4 -37 37 -130 39 -88 39 -110 0 -44 -33 57 -53 115 -75 212 -22 101 -41
112 -41 24z"/>
<path d="M5119 1274 c-12 -14 -11 -16 5 -13 11 2 21 10 24 17 5 17 -13 15 -29
-4z"/>
<path d="M7618 1182 c48 -43 172 -88 172 -64 0 24 -99 72 -180 88 -24 5 -23 4
8 -24z"/>
<path d="M4334 986 c-3 -9 -3 -28 0 -42 11 -42 86 -108 86 -76 0 5 -13 29 -30
53 -16 24 -30 49 -30 56 0 19 -20 26 -26 9z"/>
</g>
</svg>
